<?xml version="1.0" encoding="UTF-8"?>
<!DOCTYPE svg PUBLIC "-//W3C//DTD SVG 1.1//EN" "http://www.w3.org/Graphics/SVG/1.1/DTD/svg11.dtd">
<svg xmlns="http://www.w3.org/2000/svg" version="1.1" width="512px" height="512px" style="shape-rendering:geometricPrecision; text-rendering:geometricPrecision; image-rendering:optimizeQuality; fill-rule:evenodd; clip-rule:evenodd" xmlns:xlink="http://www.w3.org/1999/xlink">
<g><path style="opacity:0.984" fill="#020100" d="M 244.5,-0.5 C 252.5,-0.5 260.5,-0.5 268.5,-0.5C 290.457,4.14446 310.124,13.6445 327.5,28C 348.693,46.9231 366.693,68.4231 381.5,92.5C 412.124,98.7839 428.457,117.451 430.5,148.5C 430.641,159.076 428.308,169.076 423.5,178.5C 435.439,212.101 444.772,246.268 451.5,281C 474.104,283.937 488.27,296.437 494,318.5C 496.974,343.055 487.474,360.888 465.5,372C 458.032,374.467 450.365,375.634 442.5,375.5C 431.694,409.794 412.861,438.794 386,462.5C 386.93,470.831 388.264,479.164 390,487.5C 392.565,498.344 389.065,506.344 379.5,511.5C 359.167,511.5 338.833,511.5 318.5,511.5C 314.677,510.033 311.344,507.7 308.5,504.5C 296.88,507.757 285.214,510.091 273.5,511.5C 261.5,511.5 249.5,511.5 237.5,511.5C 225.786,510.091 214.12,507.757 202.5,504.5C 199.656,507.7 196.323,510.033 192.5,511.5C 172.167,511.5 151.833,511.5 131.5,511.5C 121.935,506.344 118.435,498.344 121,487.5C 122.736,479.164 124.07,470.831 125,462.5C 98.1389,438.794 79.3056,409.794 68.5,375.5C 43.4068,376.214 26.5735,364.88 18,341.5C 12.7954,315.393 21.9621,296.227 45.5,284C 50.0322,282.378 54.6989,281.378 59.5,281C 66.3056,246.122 75.639,211.789 87.5,178C 74.7354,151.102 78.7354,127.102 99.5,106C 108.277,98.9473 118.277,94.614 129.5,93C 149.037,60.1303 174.704,33.1303 206.5,12C 218.723,6.09171 231.39,1.92504 244.5,-0.5 Z"/></g>
<g><path style="opacity:1" fill="#e71d62" d="M 247.5,17.5 C 252.599,17.1746 257.599,17.6746 262.5,19C 284.782,32.1395 303.116,48.9728 317.5,69.5C 295.539,64.8269 274.872,68.1602 255.5,79.5C 223.273,61.9607 192.273,63.794 162.5,85C 158.694,87.8947 155.36,91.228 152.5,95C 151.365,95.7494 150.365,95.5827 149.5,94.5C 163.792,72.3698 181.126,52.8698 201.5,36C 215.212,25.818 230.545,19.6513 247.5,17.5 Z"/></g>
<g><path style="opacity:1" fill="#a91355" d="M 247.5,17.5 C 269.636,15.3678 289.636,21.2011 307.5,35C 326.249,49.0809 342.249,65.7476 355.5,85C 356.833,85 358.167,85 359.5,85C 358.426,85.7387 357.759,86.7387 357.5,88C 358.701,90.2339 360.035,92.4006 361.5,94.5C 360.635,95.5827 359.635,95.7494 358.5,95C 347.352,82.4273 333.686,73.9273 317.5,69.5C 303.116,48.9728 284.782,32.1395 262.5,19C 257.599,17.6746 252.599,17.1746 247.5,17.5 Z"/></g>
<g><path style="opacity:1" fill="#fd5621" d="M 369.5,111.5 C 371.199,111.34 372.866,111.506 374.5,112C 391.625,127.335 396.125,145.835 388,167.5C 384.422,174.896 379.589,181.229 373.5,186.5C 366.871,185.352 360.205,184.518 353.5,184C 348.728,187.86 344.395,192.194 340.5,197C 322.394,211.555 302.061,215.888 279.5,210C 271.155,206.804 263.155,202.971 255.5,198.5C 218.63,221.397 185.964,216.564 157.5,184C 153.262,183.177 149.262,183.844 145.5,186C 120.962,189.318 105.128,179.151 98,155.5C 96.4368,129.618 108.437,114.618 134,110.5C 141.934,111.492 149.767,112.658 157.5,114C 163.478,107.69 169.812,101.69 176.5,96C 195.839,84.4259 216.172,82.4259 237.5,90C 243.48,93.1599 249.48,95.9932 255.5,98.5C 262.187,95.6595 268.853,92.4928 275.5,89C 296.265,82.5011 315.932,84.8345 334.5,96C 341.188,101.69 347.522,107.69 353.5,114C 358.904,113.818 364.238,112.985 369.5,111.5 Z"/></g>
<g><path style="opacity:1" fill="#d54214" d="M 369.5,111.5 C 388.945,109.481 402.778,117.481 411,135.5C 417.153,160.696 407.986,177.529 383.5,186C 380.183,186.498 376.85,186.665 373.5,186.5C 379.589,181.229 384.422,174.896 388,167.5C 396.125,145.835 391.625,127.335 374.5,112C 372.866,111.506 371.199,111.34 369.5,111.5 Z"/></g>
<g><path style="opacity:1" fill="#080200" d="M 168.5,127.5 C 172.555,127.568 175.722,129.234 178,132.5C 184.585,147.796 183.752,162.629 175.5,177C 168.151,180.468 163.485,178.302 161.5,170.5C 163.6,164.333 164.933,158 165.5,151.5C 164.686,145.887 163.352,140.387 161.5,135C 162.662,131.34 164.995,128.84 168.5,127.5 Z"/></g>
<g><path style="opacity:1" fill="#080200" d="M 258.5,127.5 C 262.689,127.182 265.855,128.848 268,132.5C 274.558,147.792 273.725,162.625 265.5,177C 257.731,180.41 253.064,177.91 251.5,169.5C 253.602,164.149 254.935,158.649 255.5,153C 255.103,146.97 253.769,141.137 251.5,135.5C 252.48,131.527 254.814,128.86 258.5,127.5 Z"/></g>
<g><path style="opacity:1" fill="#080200" d="M 337.5,127.5 C 343.883,126.724 347.883,129.391 349.5,135.5C 347.545,140.693 346.212,146.027 345.5,151.5C 346.804,158.879 347.971,166.212 349,173.5C 343.57,180.145 338.236,180.145 333,173.5C 327.043,159.802 327.043,146.135 333,132.5C 334.366,130.638 335.866,128.972 337.5,127.5 Z"/></g>
<g><path style="opacity:1" fill="#aa1355" d="M 100.5,192.5 C 107.385,196.775 114.719,200.275 122.5,203C 129.159,203.88 135.826,204.714 142.5,205.5C 132.893,225.935 118.56,242.102 99.5,254C 94.0227,256.742 88.356,258.908 82.5,260.5C 87.0683,237.461 93.0683,214.794 100.5,192.5 Z"/></g>
<g><path style="opacity:1" fill="#aa1355" d="M 408.5,192.5 C 409.497,192.47 410.164,192.97 410.5,194C 418.246,215.731 424.246,237.898 428.5,260.5C 408.558,254.108 392.391,242.441 380,225.5C 375.914,218.997 372.081,212.33 368.5,205.5C 379.984,205.045 390.984,202.545 401.5,198C 404.02,196.303 406.353,194.47 408.5,192.5 Z"/></g>
<g><path style="opacity:1" fill="#fde939" d="M 415.5,274.5 C 421.798,327.324 408.798,374.658 376.5,416.5C 371.644,388.075 366.31,359.742 360.5,331.5C 363.665,331.449 366.998,331.282 370.5,331C 374.277,328.045 375.443,324.212 374,319.5C 365.485,311.327 355.318,306.494 343.5,305C 323.776,302.137 306.276,306.97 291,319.5C 288.314,326.458 290.647,330.791 298,332.5C 300.683,331.907 303.183,330.907 305.5,329.5C 306.499,376.664 306.832,423.997 306.5,471.5C 273.772,484.842 239.772,489.842 204.5,486.5C 204.168,433.997 204.501,381.664 205.5,329.5C 211.824,334.202 216.99,333.202 221,326.5C 221.706,324.029 221.373,321.695 220,319.5C 201.36,305.068 180.527,300.902 157.5,307C 149.615,309.522 142.782,313.689 137,319.5C 135.078,325.383 136.911,329.549 142.5,332C 144.568,332.687 146.568,332.52 148.5,331.5C 148.833,332.167 149.167,332.833 149.5,333.5C 142.992,369.865 136.325,406.198 129.5,442.5C 90.7236,402.894 73.2236,355.228 77,299.5C 77.7235,292.817 78.5568,286.151 79.5,279.5C 107.448,273.053 129.615,258.053 146,234.5C 151.171,226.828 155.838,218.828 160,210.5C 180.855,227.998 204.688,233.831 231.5,228C 239.862,225.649 247.862,222.482 255.5,218.5C 280.123,231.435 305.456,232.935 331.5,223C 338.594,219.706 345.094,215.54 351,210.5C 361.922,233.848 378.088,252.681 399.5,267C 404.525,270.174 409.858,272.674 415.5,274.5 Z"/></g>
<g><path style="opacity:1" fill="#050401" d="M 193.5,241.5 C 202.181,240.35 206.015,244.017 205,252.5C 192.596,274.304 173.763,286.471 148.5,289C 143.167,289.667 137.833,289.667 132.5,289C 125.833,283.667 125.833,278.333 132.5,273C 159.307,274.488 179.64,263.988 193.5,241.5 Z"/></g>
<g><path style="opacity:1" fill="#050401" d="M 309.5,241.5 C 312.649,241.211 315.649,241.711 318.5,243C 332.582,264.387 352.582,274.387 378.5,273C 385.676,279.431 385.009,284.765 376.5,289C 348.285,291.137 325.785,280.971 309,258.5C 304.211,252.552 304.378,246.885 309.5,241.5 Z"/></g>
<g><path style="opacity:1" fill="#fbd633" d="M 415.5,274.5 C 420.912,276.938 426.579,278.604 432.5,279.5C 440.352,329.406 430.518,375.406 403,417.5C 396.739,426.595 389.573,434.929 381.5,442.5C 379.576,433.879 377.909,425.212 376.5,416.5C 408.798,374.658 421.798,327.324 415.5,274.5 Z"/></g>
<g><path style="opacity:1" fill="#f7d332" d="M 55.5,298.5 C 56.8333,298.5 58.1667,298.5 59.5,298.5C 58.6961,318.337 60.0295,338.003 63.5,357.5C 48.2988,356.806 38.4654,349.14 34,334.5C 32.2738,317.084 39.4405,305.084 55.5,298.5 Z"/></g>
<g><path style="opacity:1" fill="#f8d333" d="M 451.5,298.5 C 467.401,301.903 476.067,311.737 477.5,328C 475.574,346.093 465.574,355.926 447.5,357.5C 451.07,338.015 452.404,318.348 451.5,298.5 Z"/></g>
<g><path style="opacity:1" fill="#0377bc" d="M 171.5,321.5 C 176.167,321.5 180.833,321.5 185.5,321.5C 186.496,379.095 186.829,436.762 186.5,494.5C 181.5,494.5 176.5,494.5 171.5,494.5C 171.5,436.833 171.5,379.167 171.5,321.5 Z"/></g>
<g><path style="opacity:1" fill="#0275b9" d="M 324.5,322.5 C 330.31,321.51 336.31,321.177 342.5,321.5C 352.702,379.179 363.036,436.846 373.5,494.5C 368.167,494.5 362.833,494.5 357.5,494.5C 347.5,437.165 337.5,379.832 327.5,322.5C 326.5,322.5 325.5,322.5 324.5,322.5 Z"/></g>
<g><path style="opacity:1" fill="#01a6f0" d="M 171.5,321.5 C 171.5,379.167 171.5,436.833 171.5,494.5C 160.167,494.5 148.833,494.5 137.5,494.5C 147.959,436.869 158.293,379.203 168.5,321.5C 169.5,321.5 170.5,321.5 171.5,321.5 Z"/></g>
<g><path style="opacity:1" fill="#02588c" d="M 185.5,321.5 C 186.833,349.992 187.5,378.826 187.5,408C 187.5,437.002 187.167,465.835 186.5,494.5C 186.829,436.762 186.496,379.095 185.5,321.5 Z"/></g>
<g><path style="opacity:1" fill="#01a5ef" d="M 324.5,322.5 C 325.5,322.5 326.5,322.5 327.5,322.5C 337.5,379.832 347.5,437.165 357.5,494.5C 346.167,494.5 334.833,494.5 323.5,494.5C 323.168,436.998 323.501,379.664 324.5,322.5 Z"/></g>
<g><path style="opacity:1" fill="#2f2b0b" d="M 205.5,329.5 C 204.501,381.664 204.168,433.997 204.5,486.5C 203.169,433.998 203.169,381.332 204.5,328.5C 205.107,328.624 205.44,328.957 205.5,329.5 Z"/></g>
<g><path style="opacity:1" fill="#37320c" d="M 305.5,329.5 C 305.56,328.957 305.893,328.624 306.5,328.5C 307.831,381.332 307.831,433.998 306.5,486.5C 306.5,481.5 306.5,476.5 306.5,471.5C 306.832,423.997 306.499,376.664 305.5,329.5 Z"/></g>
<g><path style="opacity:1" fill="#040301" d="M 250.5,366.5 C 260.011,365.837 267.844,369.171 274,376.5C 287.476,396.207 292.142,417.874 288,441.5C 283.145,453.191 274.312,459.358 261.5,460C 248.13,462.287 236.63,458.787 227,449.5C 224.734,445.034 223.067,440.368 222,435.5C 219.046,410.792 225.88,389.292 242.5,371C 245.354,369.603 248.02,368.103 250.5,366.5 Z"/></g>
<g><path style="opacity:1" fill="#36464d" d="M 248.5,442.5 C 251.434,441.711 253.268,439.711 254,436.5C 255.952,424.153 255.952,411.819 254,399.5C 252.914,395.654 251.081,392.32 248.5,389.5C 251.98,382.967 256.146,382.3 261,387.5C 270.629,401.392 274.296,416.725 272,433.5C 271.771,436.458 270.604,438.958 268.5,441C 261.826,443.475 255.159,443.975 248.5,442.5 Z"/></g>
<g><path style="opacity:1" fill="#5e7a88" d="M 248.5,389.5 C 251.081,392.32 252.914,395.654 254,399.5C 255.952,411.819 255.952,424.153 254,436.5C 253.268,439.711 251.434,441.711 248.5,442.5C 242.612,442.447 239.445,439.447 239,433.5C 236.867,417.662 240.034,402.996 248.5,389.5 Z"/></g>
<g><path style="opacity:1" fill="#f6d232" d="M 306.5,471.5 C 306.5,476.5 306.5,481.5 306.5,486.5C 272.456,497.148 238.456,497.148 204.5,486.5C 239.772,489.842 273.772,484.842 306.5,471.5 Z"/></g>
</svg>
