<?xml version="1.0" encoding="utf-8"?>
<!-- Uploaded to: SVG Repo, www.svgrepo.com, Generator: SVG Repo Mixer Tools -->
<svg fill="#000000" width="800px" height="800px" viewBox="0 0 32 32" version="1.1" xmlns="http://www.w3.org/2000/svg">
<title>bombs</title>
<path d="M29.33 22.693l-4.050-4.050c-1.222-1.222-3.284-1.97-5.068-1.793-0 0-0 0-0 0 0.413-0.679 0.777-1.407 1.105-2.17l-2.539-2.539c-3.117 1.196-5.277 3.471-6.634 6.634l2.539 2.539c0.797-0.242 1.512-0.567 2.157-0.962-0.125 1.75 0.616 3.735 1.805 4.924l4.050 4.050c1.513 1.513 3.793 1.777 5.575 0.795l0.492 0.492 1.854-1.854-0.492-0.492c0.982-1.782 0.718-4.062-0.796-5.575zM11 19.89c-0.382-1.424-1.586-2.858-2.981-3.488 0.595-0.326 1.174-0.708 1.743-1.132l-0.793-2.961c-2.814-0.446-5.381 0.314-7.734 2.072l0.793 2.961c0.693 0.161 1.36 0.226 2.005 0.21-0.839 1.24-1.138 3.024-0.767 4.41l1.265 4.722c0.473 1.764 2.045 2.932 3.781 2.967l0.153 0.573 2.162-0.579-0.153-0.573c1.486-0.898 2.264-2.696 1.791-4.46l-1.265-4.722zM18.219 8.172c-0 0.001-0.001 0.001-0.001 0.002 0.274 1.419 1.287 2.842 2.487 3.535l4.087 2.36c1.527 0.882 3.398 0.606 4.607-0.556l0.496 0.286 1.080-1.871-0.496-0.286c0.401-1.628-0.295-3.386-1.822-4.268l-4.087-2.36c-1.233-0.712-3.034-0.868-4.416-0.347-0 0.001-0.001 0.002-0.001 0.003 0.184-0.629 0.319-1.287 0.418-1.965l-2.563-1.48c-2.226 1.617-3.46 3.888-3.865 6.695l2.563 1.48c0.584-0.363 1.084-0.775 1.514-1.227zM18.557 7.791c0-0 0-0 0-0s-0 0-0 0zM18.391 7.986c0-0.001 0.001-0.001 0.001-0.002-0 0.001-0.001 0.001-0.001 0.002z"></path>
</svg>