<?xml version="1.0" encoding="UTF-8"?>
<!DOCTYPE svg PUBLIC "-//W3C//DTD SVG 1.1//EN" "http://www.w3.org/Graphics/SVG/1.1/DTD/svg11.dtd">
<svg xmlns="http://www.w3.org/2000/svg" version="1.1" width="512px" height="469px" style="shape-rendering:geometricPrecision; text-rendering:geometricPrecision; image-rendering:optimizeQuality; fill-rule:evenodd; clip-rule:evenodd" xmlns:xlink="http://www.w3.org/1999/xlink">
<g><path style="opacity:0.994" fill="#202c32" d="M 139.5,-0.5 C 150.167,-0.5 160.833,-0.5 171.5,-0.5C 203.763,4.96468 231.763,18.9647 255.5,41.5C 279.237,18.9647 307.237,4.96468 339.5,-0.5C 350.167,-0.5 360.833,-0.5 371.5,-0.5C 419.67,8.8278 456.504,34.4945 482,76.5C 498.164,103.825 507.997,133.159 511.5,164.5C 511.5,177.833 511.5,191.167 511.5,204.5C 506.053,248.066 490.553,287.733 465,323.5C 429.43,369.74 385.93,406.573 334.5,434C 310.344,446.916 285.677,458.416 260.5,468.5C 257.167,468.5 253.833,468.5 250.5,468.5C 200.727,449.455 154.727,423.955 112.5,392C 70.6049,359.776 38.7715,319.609 17,271.5C 8.16476,249.82 2.33143,227.487 -0.5,204.5C -0.5,190.833 -0.5,177.167 -0.5,163.5C 5.42015,113.494 26.4202,70.9935 62.5,36C 84.8674,16.8158 110.534,4.64909 139.5,-0.5 Z"/></g>
<g><path style="opacity:1" fill="#fb4654" d="M 144.5,26.5 C 185.788,25.6497 219.788,40.8164 246.5,72C 252.461,76.6553 258.461,76.6553 264.5,72C 279.448,54.7104 297.448,41.7104 318.5,33C 359.749,20.2293 396.749,27.896 429.5,56C 472.553,98.15 490.386,149.317 483,209.5C 475.4,255.361 456.067,295.361 425,329.5C 383.553,372.489 335.387,405.989 280.5,430C 272.167,433.5 263.833,437 255.5,440.5C 202.542,419.874 154.542,391.374 111.5,355C 81.0133,327.86 57.5133,295.693 41,258.5C 19.2197,203.211 21.8863,149.211 49,96.5C 70.3509,58.6208 102.184,35.2874 144.5,26.5 Z"/></g>
</svg>
