<?xml version="1.0" encoding="UTF-8"?>
<!DOCTYPE svg PUBLIC "-//W3C//DTD SVG 1.1//EN" "http://www.w3.org/Graphics/SVG/1.1/DTD/svg11.dtd">
<svg xmlns="http://www.w3.org/2000/svg" version="1.1" width="512px" height="512px" style="shape-rendering:geometricPrecision; text-rendering:geometricPrecision; image-rendering:optimizeQuality; fill-rule:evenodd; clip-rule:evenodd" xmlns:xlink="http://www.w3.org/1999/xlink">
<g><path style="opacity:0.99" fill="#010000" d="M 192.5,-0.5 C 234.5,-0.5 276.5,-0.5 318.5,-0.5C 390.006,9.15481 440.172,47.1548 469,113.5C 485.29,151.908 492.29,191.908 490,233.5C 487.543,242.24 482.71,249.406 475.5,255C 495.132,263.785 507.132,278.619 511.5,299.5C 511.5,305.833 511.5,312.167 511.5,318.5C 503.75,348.071 484.584,364.738 454,368.5C 433.137,419.362 399.303,459.196 352.5,488C 328.518,500.608 303.184,508.441 276.5,511.5C 262.5,511.5 248.5,511.5 234.5,511.5C 181.727,505.53 137.894,482.53 103,442.5C 83.6754,420.468 68.3421,395.801 57,368.5C 27.3169,365.441 8.15023,349.775 -0.5,321.5C -0.5,313.167 -0.5,304.833 -0.5,296.5C 4.54722,277.121 16.2139,263.121 34.5,254.5C 25.9974,247.496 21.1641,238.496 20,227.5C 19.0426,173.72 32.7092,124.053 61,78.5C 92.6509,32.0833 136.484,5.75 192.5,-0.5 Z"/></g>
<g><path style="opacity:1" fill="#f24235" d="M 244.5,31.5 C 269.226,29.7989 291.226,36.6322 310.5,52C 343.391,82.9594 360.725,121.126 362.5,166.5C 342.5,166.5 322.5,166.5 302.5,166.5C 296.754,150.927 285.754,141.093 269.5,137C 248.014,131.831 229.847,137.331 215,153.5C 211.762,157.309 209.596,161.642 208.5,166.5C 188.5,166.5 168.5,166.5 148.5,166.5C 150.147,130.051 161.981,97.3847 184,68.5C 199.994,49.0979 220.16,36.7646 244.5,31.5 Z"/></g>
<g><path style="opacity:1" fill="#f24235" d="M 116.5,161.5 C 115.566,162.568 115.232,163.901 115.5,165.5C 96.8333,165.5 78.1667,165.5 59.5,165.5C 67.3117,126.365 85.645,93.1982 114.5,66C 131.021,52.0736 149.688,42.4069 170.5,37C 137.923,72.0054 119.923,113.505 116.5,161.5 Z"/></g>
<g><path style="opacity:1" fill="#f14235" d="M 451.5,163.5 C 433.197,165.487 414.53,166.154 395.5,165.5C 395.768,163.901 395.434,162.568 394.5,161.5C 391.165,114.015 373.498,72.848 341.5,38C 376.477,47.288 403.977,67.1214 424,97.5C 437.293,117.757 446.46,139.757 451.5,163.5 Z"/></g>
<g><path style="opacity:1" fill="#83241d" d="M 116.5,161.5 C 116.5,163.167 116.5,164.833 116.5,166.5C 97.326,166.83 78.326,166.497 59.5,165.5C 78.1667,165.5 96.8333,165.5 115.5,165.5C 115.232,163.901 115.566,162.568 116.5,161.5 Z"/></g>
<g><path style="opacity:1" fill="#82241d" d="M 394.5,161.5 C 395.434,162.568 395.768,163.901 395.5,165.5C 414.53,166.154 433.197,165.487 451.5,163.5C 452.404,164.209 452.737,165.209 452.5,166.5C 433.167,166.5 413.833,166.5 394.5,166.5C 394.5,164.833 394.5,163.167 394.5,161.5 Z"/></g>
<g><path style="opacity:1" fill="#f8c427" d="M 248.5,167.5 C 257.02,166.05 264.52,168.05 271,173.5C 276.032,180.689 275.199,187.189 268.5,193C 257.674,199.751 247.84,198.584 239,189.5C 235.151,182.411 236.318,176.245 242.5,171C 244.727,170.059 246.727,168.892 248.5,167.5 Z"/></g>
<g><path style="opacity:1" fill="#445963" d="M 243.5,227.5 C 182.336,228.499 121.002,228.832 59.5,228.5C 56.9556,228.896 54.7889,228.229 53,226.5C 52.434,217.153 52.6007,207.82 53.5,198.5C 105.171,198.167 156.838,198.5 208.5,199.5C 215.455,214.795 227.122,224.128 243.5,227.5 Z"/></g>
<g><path style="opacity:1" fill="#445963" d="M 455.5,228.5 C 392.664,228.832 329.998,228.499 267.5,227.5C 283.891,224.113 295.558,214.779 302.5,199.5C 354.162,198.5 405.829,198.167 457.5,198.5C 458.554,207.806 458.721,217.139 458,226.5C 457.292,227.381 456.458,228.047 455.5,228.5 Z"/></g>
<g><path style="opacity:1" fill="#242f34" d="M 243.5,227.5 C 245.179,227.892 246.846,228.392 248.5,229C 185.332,229.832 122.332,229.665 59.5,228.5C 121.002,228.832 182.336,228.499 243.5,227.5 Z"/></g>
<g><path style="opacity:1" fill="#242f34" d="M 267.5,227.5 C 329.998,228.499 392.664,228.832 455.5,228.5C 391.001,229.665 326.335,229.832 261.5,229C 263.518,228.495 265.518,227.995 267.5,227.5 Z"/></g>
<g><path style="opacity:1" fill="#fdca7f" d="M 73.5,260.5 C 194.833,260.5 316.167,260.5 437.5,260.5C 441.737,342.515 410.737,407.349 344.5,455C 306.849,476.751 266.515,484.085 223.5,477C 181.647,468.161 147.481,446.994 121,413.5C 85.2484,368.864 69.4151,317.864 73.5,260.5 Z"/></g>
<g><path style="opacity:1" fill="#f4af49" d="M 40.5,288.5 C 41.7594,303.157 43.5927,317.824 46,332.5C 34.211,325.492 29.5443,315.159 32,301.5C 34.2695,296.744 37.1028,292.41 40.5,288.5 Z"/></g>
<g><path style="opacity:1" fill="#f4af49" d="M 469.5,289.5 C 480.6,299.18 482.433,310.513 475,323.5C 472.273,326.731 469.106,329.397 465.5,331.5C 465.167,331 464.833,330.5 464.5,330C 467.814,316.712 469.481,303.212 469.5,289.5 Z"/></g>
<g><path style="opacity:1" fill="#030201" d="M 166.5,291.5 C 188.208,290.217 208.041,295.55 226,307.5C 233.084,321.758 228.917,330.758 213.5,334.5C 205.663,331.087 197.663,327.92 189.5,325C 179.414,322.806 169.414,323.139 159.5,326C 154.157,328.006 148.823,330.006 143.5,332C 130.223,332.387 124.056,325.887 125,312.5C 126,310.5 127,308.5 128,306.5C 139.716,298.432 152.55,293.432 166.5,291.5 Z"/></g>
<g><path style="opacity:1" fill="#030201" d="M 325.5,291.5 C 344.941,290.777 363.275,294.944 380.5,304C 387.423,310.797 388.256,318.297 383,326.5C 379.304,330.264 374.804,332.264 369.5,332.5C 363.352,330.839 357.352,328.672 351.5,326C 341.238,323.213 330.905,322.879 320.5,325C 312.562,328.475 304.562,331.641 296.5,334.5C 284.42,332.018 279.587,324.685 282,312.5C 283,310.833 284,309.167 285,307.5C 297.193,298.59 310.693,293.256 325.5,291.5 Z"/></g>
<g><path style="opacity:1" fill="#030201" d="M 200.5,395.5 C 203.941,395.301 207.274,395.801 210.5,397C 234.02,419.147 260.02,422.48 288.5,407C 291.797,404.705 294.797,402.038 297.5,399C 304.725,394.221 311.725,394.555 318.5,400C 324.556,406.741 325.056,413.907 320,421.5C 293.077,447.687 261.577,455.187 225.5,444C 212.753,439.215 201.587,432.048 192,422.5C 185.136,410.323 187.969,401.323 200.5,395.5 Z"/></g>
</svg>
