<?xml version="1.0" encoding="UTF-8"?>
<!DOCTYPE svg PUBLIC "-//W3C//DTD SVG 1.1//EN" "http://www.w3.org/Graphics/SVG/1.1/DTD/svg11.dtd">
<svg xmlns="http://www.w3.org/2000/svg" version="1.1" width="512px" height="512px" style="shape-rendering:geometricPrecision; text-rendering:geometricPrecision; image-rendering:optimizeQuality; fill-rule:evenodd; clip-rule:evenodd" xmlns:xlink="http://www.w3.org/1999/xlink">
<g><path style="opacity:1" fill="#fffefe" d="M -0.5,-0.5 C 170.167,-0.5 340.833,-0.5 511.5,-0.5C 511.5,170.167 511.5,340.833 511.5,511.5C 340.833,511.5 170.167,511.5 -0.5,511.5C -0.5,340.833 -0.5,170.167 -0.5,-0.5 Z"/></g>
<g><path style="opacity:1" fill="#fb5061" d="M 305.5,73.5 C 317.027,83.5211 328.194,94.1878 339,105.5C 354.118,122.392 365.118,141.725 372,163.5C 383.621,208.305 371.121,244.805 334.5,273C 302.352,295.808 271.352,320.141 241.5,346C 220.557,365.416 202.891,387.249 188.5,411.5C 145.181,383.023 107.348,348.356 75,307.5C 52.1337,276.419 37.467,241.753 31,203.5C 25.5558,170.264 30.8891,138.931 47,109.5C 70.2989,75.5263 102.799,58.8597 144.5,59.5C 177.305,60.6015 206.972,70.7682 233.5,90C 241.016,95.5928 248.349,101.426 255.5,107.5C 270.81,94.1779 287.477,82.8445 305.5,73.5 Z"/></g>
<g><path style="opacity:1" fill="#de354e" d="M 188.5,411.5 C 202.891,387.249 220.557,365.416 241.5,346C 271.352,320.141 302.352,295.808 334.5,273C 371.121,244.805 383.621,208.305 372,163.5C 365.118,141.725 354.118,122.392 339,105.5C 328.194,94.1878 317.027,83.5211 305.5,73.5C 346.22,54.7122 386.886,54.8789 427.5,74C 459.418,94.2982 477.251,123.465 481,161.5C 483.745,208.521 472.412,251.854 447,291.5C 430.833,316.351 411.666,338.851 389.5,359C 349.692,395.58 305.692,426.247 257.5,451C 256.167,451.667 254.833,451.667 253.5,451C 230.609,439.559 208.942,426.392 188.5,411.5 Z"/></g>
<g><path style="opacity:1" fill="#fffdfd" d="M 121.5,93.5 C 149.226,92.4104 167.059,105.077 175,131.5C 177.142,161.41 163.642,179.576 134.5,186C 106.157,186.742 88.9905,173.242 83,145.5C 81.5747,125.851 89.0747,110.684 105.5,100C 110.744,97.315 116.077,95.1484 121.5,93.5 Z"/></g>
</svg>
