<?xml version="1.0" standalone="no"?>
<!DOCTYPE svg PUBLIC "-//W3C//DTD SVG 20010904//EN"
 "http://www.w3.org/TR/2001/REC-SVG-20010904/DTD/svg10.dtd">
<svg version="1.0" xmlns="http://www.w3.org/2000/svg"
 width="512.000000pt" height="512.000000pt" viewBox="0 0 512.000000 512.000000"
 preserveAspectRatio="xMidYMid meet">

<g transform="translate(0.000000,512.000000) scale(0.100000,-0.100000)"
fill="#000000" stroke="none">
<path d="M1945 5109 c-718 -68 -1279 -518 -1561 -1252 -106 -278 -174 -639
-174 -933 0 -150 16 -213 75 -295 19 -27 35 -51 35 -53 0 -2 -19 -15 -43 -29
-24 -14 -73 -57 -109 -96 -297 -314 -181 -824 225 -985 37 -15 93 -30 124 -34
l57 -7 79 -155 c298 -585 735 -989 1258 -1164 504 -168 1082 -130 1542 101
299 150 542 359 772 668 105 141 151 215 246 400 l76 149 74 12 c225 38 426
233 480 464 16 70 16 200 0 270 -33 140 -135 291 -249 367 l-57 38 36 49 c59
78 79 154 79 304 0 439 -134 934 -350 1292 -89 148 -159 239 -280 364 -302
311 -670 484 -1120 525 -135 13 -1082 12 -1215 0z m782 -419 c163 -39 288
-112 423 -249 100 -101 169 -199 238 -336 79 -158 135 -335 161 -512 19 -127
48 -113 -238 -113 l-249 0 -28 48 c-39 66 -129 151 -201 190 -170 90 -345 94
-518 12 -98 -47 -161 -101 -217 -186 l-42 -64 -249 0 -250 0 7 63 c28 250 132
535 268 735 111 163 290 314 448 378 139 56 302 69 447 34z m-1245 -197 c-164
-246 -273 -547 -320 -883 l-18 -125 -222 -3 -222 -2 0 22 c0 34 77 252 126
358 143 305 361 546 624 689 41 22 80 41 86 41 7 0 -18 -44 -54 -97z m2188 56
c263 -143 481 -384 624 -689 49 -106 126 -324 126 -358 l0 -22 -222 2 -222 3
-18 125 c-47 338 -157 639 -320 883 -36 53 -61 97 -54 97 6 0 45 -19 86 -41z
m-1029 -1192 c47 -32 64 -69 47 -104 -23 -47 -63 -68 -128 -68 -65 0 -105 21
-128 68 -28 57 43 127 128 127 32 0 58 -7 81 -23z m-555 -324 c15 -27 54 -74
86 -105 l59 -58 -812 0 -812 0 7 77 c3 42 6 89 6 105 l0 28 719 0 719 0 28
-47z m2414 19 c0 -16 3 -63 6 -105 l7 -77 -812 0 -812 0 59 58 c32 31 71 78
86 105 l28 47 719 0 719 0 0 -28z m-203 -794 c-3 -147 -11 -235 -26 -318 -74
-394 -296 -791 -611 -1093 -225 -216 -464 -342 -770 -408 -92 -20 -134 -23
-330 -23 -196 0 -238 3 -330 23 -332 71 -586 214 -831 467 -157 163 -269 322
-379 539 -139 272 -200 537 -200 862 l0 153 1741 0 1742 0 -6 -202z m-3863
-283 c5 -47 5 -49 -9 -25 -8 15 -14 50 -14 85 1 53 2 56 9 25 4 -19 10 -57 14
-85z m4262 -6 c-12 -27 -14 -29 -11 -9 2 14 7 48 12 75 l8 50 3 -41 c2 -23 -4
-57 -12 -75z"/>
<path d="M1658 2200 c-25 -4 -73 -16 -105 -25 -68 -19 -293 -124 -293 -137 0
-4 29 -67 65 -138 l65 -130 88 44 c259 130 447 124 649 -20 36 -26 68 -42 73
-38 41 46 170 238 163 244 -31 27 -148 103 -200 129 -102 51 -193 72 -333 76
-69 2 -146 0 -172 -5z"/>
<path d="M3178 2200 c-127 -23 -234 -68 -348 -148 -36 -25 -69 -48 -73 -52 -7
-6 125 -203 163 -243 4 -5 43 16 86 46 107 75 183 100 304 101 113 1 196 -22
332 -90 l88 -44 65 130 c36 71 65 134 65 138 0 15 -234 121 -316 143 -88 23
-287 34 -366 19z"/>
<path d="M1960 1165 l-105 -105 75 -76 c131 -133 262 -211 425 -255 115 -31
298 -31 415 0 163 43 305 128 440 265 l65 66 -107 107 -107 106 -85 -81 c-162
-153 -337 -208 -531 -167 -110 23 -188 67 -286 162 -47 45 -88 83 -90 83 -2 0
-51 -47 -109 -105z"/>
</g>
</svg>
